<?xml version="1.0" encoding="utf-8"?>
<!-- Generator: Adobe Illustrator 21.1.0, SVG Export Plug-In . SVG Version: 6.00 Build 0)  -->
<svg version="1.1" id="Layer_1" focusable="false" xmlns="http://www.w3.org/2000/svg" xmlns:xlink="http://www.w3.org/1999/xlink"
	 x="0px" y="0px" viewBox="0 0 512 512" style="enable-background:new 0 0 512 512;" xml:space="preserve">
<style type="text/css">
	.st0{fill:#FFD000;}
</style>
<path class="st0" d="M256,8c137,0,248,111,248,248S393,504,256,504S8,393,8,256S119,8,256,8z M227.1,151.6l75.5,72.4H120
	c-13.3,0-24,10.7-24,24v16c0,13.3,10.7,24,24,24h182.6l-75.5,72.4c-9.7,9.3-9.9,24.8-0.4,34.3l11,10.9c9.4,9.4,24.6,9.4,33.9,0
	L404.3,273c9.4-9.4,9.4-24.6,0-33.9L271.6,106.3c-9.4-9.4-24.6-9.4-33.9,0l-11,10.9C217.2,126.8,217.4,142.3,227.1,151.6z"/>
</svg>
