<?xml version="1.0" encoding="utf-8"?>
<!-- Generator: Adobe Illustrator 21.1.0, SVG Export Plug-In . SVG Version: 6.00 Build 0)  -->
<svg version="1.1" id="Layer_1" focusable="false" xmlns="http://www.w3.org/2000/svg" xmlns:xlink="http://www.w3.org/1999/xlink"
	 x="0px" y="0px" viewBox="0 0 512 512" style="enable-background:new 0 0 512 512;" xml:space="preserve">
<style type="text/css">
	.st0{fill:#FFD000;}
</style>
<path class="st0" d="M256,504C119,504,8,393,8,256S119,8,256,8s248,111,248,248S393,504,256,504z M284.9,360.4L209.4,288H392
	c13.3,0,24-10.7,24-24v-16c0-13.3-10.7-24-24-24H209.4l75.5-72.4c9.7-9.3,9.9-24.8,0.4-34.3l-11-10.9c-9.4-9.4-24.6-9.4-33.9,0
	L107.7,239c-9.4,9.4-9.4,24.6,0,33.9l132.7,132.7c9.4,9.4,24.6,9.4,33.9,0l11-10.9C294.8,385.2,294.6,369.7,284.9,360.4z"/>
</svg>
